<?xml version="1.0" encoding="UTF-8" standalone="no"?>
<!DOCTYPE svg PUBLIC "-//W3C//DTD SVG 1.1//EN"
 "http://www.w3.org/Graphics/SVG/1.1/DTD/svg11.dtd">
<!-- Generated by graphviz version 2.34.0 (20140114.1509)
 -->
<!-- Title: controllers_diagram Pages: 1 -->
<svg width="743pt" height="615pt"
 viewBox="0.00 0.00 742.90 614.52" xmlns="http://www.w3.org/2000/svg" xmlns:xlink="http://www.w3.org/1999/xlink">
<g id="graph0" class="graph" transform="scale(1 1) rotate(0) translate(4 610.519)">
<title>controllers_diagram</title>
<polygon fill="white" stroke="white" points="-4,4 -4,-610.519 738.899,-610.519 738.899,4 -4,4"/>
<!-- _diagram_info -->
<g id="node1" class="node"><title>_diagram_info</title>
<text text-anchor="start" x="536" y="-113" font-family="Times,serif" font-size="13.00">Controllers diagram</text>
<text text-anchor="start" x="536" y="-97.4" font-family="Times,serif" font-size="13.00">Date: Jan 14 2014 &#45; 15:33</text>
<text text-anchor="start" x="536" y="-81.8" font-family="Times,serif" font-size="13.00">Migration version: 20140113174923</text>
<text text-anchor="start" x="536" y="-66.2" font-family="Times,serif" font-size="13.00">Generated by RailRoady 1.1.1</text>
<text text-anchor="start" x="536" y="-50.6" font-family="Times,serif" font-size="13.00">http://railroady.prestonlee.com</text>
</g>
<!-- ApplicationController -->
<g id="node2" class="node"><title>ApplicationController</title>
<path fill="none" stroke="black" d="M199.631,-259.501C199.631,-259.501 315.273,-259.501 315.273,-259.501 321.273,-259.501 327.273,-265.501 327.273,-271.501 327.273,-271.501 327.273,-345.101 327.273,-345.101 327.273,-351.101 321.273,-357.101 315.273,-357.101 315.273,-357.101 199.631,-357.101 199.631,-357.101 193.631,-357.101 187.631,-351.101 187.631,-345.101 187.631,-345.101 187.631,-271.501 187.631,-271.501 187.631,-265.501 193.631,-259.501 199.631,-259.501"/>
<text text-anchor="middle" x="257.452" y="-339.101" font-family="Times,serif" font-size="14.00">ApplicationController</text>
<polyline fill="none" stroke="black" points="187.631,-332.301 327.273,-332.301 "/>
<polyline fill="none" stroke="black" points="187.631,-308.301 327.273,-308.301 "/>
<polyline fill="none" stroke="black" points="187.631,-284.301 327.273,-284.301 "/>
<text text-anchor="start" x="195.631" y="-266.301" font-family="Times,serif" font-size="14.00">_layout</text>
</g>
<!-- CartsController -->
<g id="node3" class="node"><title>CartsController</title>
<path fill="none" stroke="black" d="M353.605,-0.5C353.605,-0.5 432.702,-0.5 432.702,-0.5 438.702,-0.5 444.702,-6.5 444.702,-12.5 444.702,-12.5 444.702,-238.1 444.702,-238.1 444.702,-244.1 438.702,-250.1 432.702,-250.1 432.702,-250.1 353.605,-250.1 353.605,-250.1 347.605,-250.1 341.605,-244.1 341.605,-238.1 341.605,-238.1 341.605,-12.5 341.605,-12.5 341.605,-6.5 347.605,-0.5 353.605,-0.5"/>
<text text-anchor="middle" x="393.154" y="-232.1" font-family="Times,serif" font-size="14.00">CartsController</text>
<polyline fill="none" stroke="black" points="341.605,-225.3 444.702,-225.3 "/>
<text text-anchor="start" x="349.605" y="-207.3" font-family="Times,serif" font-size="14.00">create</text>
<text text-anchor="start" x="349.605" y="-190.5" font-family="Times,serif" font-size="14.00">destroy</text>
<text text-anchor="start" x="349.605" y="-173.7" font-family="Times,serif" font-size="14.00">edit</text>
<text text-anchor="start" x="349.605" y="-156.9" font-family="Times,serif" font-size="14.00">index</text>
<text text-anchor="start" x="349.605" y="-140.1" font-family="Times,serif" font-size="14.00">invalid_cart</text>
<text text-anchor="start" x="349.605" y="-123.3" font-family="Times,serif" font-size="14.00">new</text>
<text text-anchor="start" x="349.605" y="-106.5" font-family="Times,serif" font-size="14.00">show</text>
<text text-anchor="start" x="349.605" y="-89.7" font-family="Times,serif" font-size="14.00">update</text>
<polyline fill="none" stroke="black" points="341.605,-82.9 444.702,-82.9 "/>
<polyline fill="none" stroke="black" points="341.605,-58.9 444.702,-58.9 "/>
<text text-anchor="start" x="349.605" y="-40.9" font-family="Times,serif" font-size="14.00">_layout</text>
<text text-anchor="start" x="349.605" y="-24.1" font-family="Times,serif" font-size="14.00">cart_params</text>
<text text-anchor="start" x="349.605" y="-7.3" font-family="Times,serif" font-size="14.00">set_cart</text>
</g>
<!-- ApplicationController&#45;&gt;CartsController -->
<g id="edge1" class="edge"><title>ApplicationController&#45;&gt;CartsController</title>
<path fill="none" stroke="black" d="M293.817,-259.26C307.507,-240.799 323.395,-219.374 338.395,-199.146"/>
<polyline fill="none" stroke="black" points="341.382,-195.117 338.404,-199.134 "/>
</g>
<!-- LineItemsController -->
<g id="node4" class="node"><title>LineItemsController</title>
<path fill="none" stroke="black" d="M50.0673,-5.21075C50.0673,-5.21075 156.371,-5.21075 156.371,-5.21075 162.371,-5.21075 168.371,-11.2108 168.371,-17.2108 168.371,-17.2108 168.371,-226.011 168.371,-226.011 168.371,-232.011 162.371,-238.011 156.371,-238.011 156.371,-238.011 50.0673,-238.011 50.0673,-238.011 44.0673,-238.011 38.0673,-232.011 38.0673,-226.011 38.0673,-226.011 38.0673,-17.2108 38.0673,-17.2108 38.0673,-11.2108 44.0673,-5.21075 50.0673,-5.21075"/>
<text text-anchor="middle" x="103.219" y="-220.011" font-family="Times,serif" font-size="14.00">LineItemsController</text>
<polyline fill="none" stroke="black" points="38.0673,-213.211 168.371,-213.211 "/>
<text text-anchor="start" x="46.0673" y="-195.211" font-family="Times,serif" font-size="14.00">create</text>
<text text-anchor="start" x="46.0673" y="-178.411" font-family="Times,serif" font-size="14.00">destroy</text>
<text text-anchor="start" x="46.0673" y="-161.611" font-family="Times,serif" font-size="14.00">edit</text>
<text text-anchor="start" x="46.0673" y="-144.811" font-family="Times,serif" font-size="14.00">index</text>
<text text-anchor="start" x="46.0673" y="-128.011" font-family="Times,serif" font-size="14.00">new</text>
<text text-anchor="start" x="46.0673" y="-111.211" font-family="Times,serif" font-size="14.00">show</text>
<text text-anchor="start" x="46.0673" y="-94.4108" font-family="Times,serif" font-size="14.00">update</text>
<polyline fill="none" stroke="black" points="38.0673,-87.6108 168.371,-87.6108 "/>
<polyline fill="none" stroke="black" points="38.0673,-63.6108 168.371,-63.6108 "/>
<text text-anchor="start" x="46.0673" y="-45.6108" font-family="Times,serif" font-size="14.00">_layout</text>
<text text-anchor="start" x="46.0673" y="-28.8108" font-family="Times,serif" font-size="14.00">line_item_params</text>
<text text-anchor="start" x="46.0673" y="-12.0108" font-family="Times,serif" font-size="14.00">set_line_item</text>
</g>
<!-- ApplicationController&#45;&gt;LineItemsController -->
<g id="edge2" class="edge"><title>ApplicationController&#45;&gt;LineItemsController</title>
<path fill="none" stroke="black" d="M216.929,-259.251C203.155,-242.578 187.354,-223.451 171.998,-204.864"/>
<polyline fill="none" stroke="black" points="168.523,-200.658 171.707,-204.512 "/>
</g>
<!-- OrdersController -->
<g id="node5" class="node"><title>OrdersController</title>
<path fill="none" stroke="black" d="M12,-324.114C12,-324.114 99.6416,-324.114 99.6416,-324.114 105.642,-324.114 111.642,-330.114 111.642,-336.114 111.642,-336.114 111.642,-544.914 111.642,-544.914 111.642,-550.914 105.642,-556.914 99.6416,-556.914 99.6416,-556.914 12,-556.914 12,-556.914 6,-556.914 -2.84217e-14,-550.914 -2.84217e-14,-544.914 -2.84217e-14,-544.914 -2.84217e-14,-336.114 -2.84217e-14,-336.114 -2.84217e-14,-330.114 6,-324.114 12,-324.114"/>
<text text-anchor="middle" x="55.8208" y="-538.914" font-family="Times,serif" font-size="14.00">OrdersController</text>
<polyline fill="none" stroke="black" points="-2.84217e-14,-532.114 111.642,-532.114 "/>
<text text-anchor="start" x="8" y="-514.114" font-family="Times,serif" font-size="14.00">create</text>
<text text-anchor="start" x="8" y="-497.314" font-family="Times,serif" font-size="14.00">destroy</text>
<text text-anchor="start" x="8" y="-480.514" font-family="Times,serif" font-size="14.00">edit</text>
<text text-anchor="start" x="8" y="-463.714" font-family="Times,serif" font-size="14.00">index</text>
<text text-anchor="start" x="8" y="-446.914" font-family="Times,serif" font-size="14.00">new</text>
<text text-anchor="start" x="8" y="-430.114" font-family="Times,serif" font-size="14.00">show</text>
<text text-anchor="start" x="8" y="-413.314" font-family="Times,serif" font-size="14.00">update</text>
<polyline fill="none" stroke="black" points="-2.84217e-14,-406.514 111.642,-406.514 "/>
<polyline fill="none" stroke="black" points="-2.84217e-14,-382.514 111.642,-382.514 "/>
<text text-anchor="start" x="8" y="-364.514" font-family="Times,serif" font-size="14.00">_layout</text>
<text text-anchor="start" x="8" y="-347.714" font-family="Times,serif" font-size="14.00">order_params</text>
<text text-anchor="start" x="8" y="-330.914" font-family="Times,serif" font-size="14.00">set_order</text>
</g>
<!-- ApplicationController&#45;&gt;OrdersController -->
<g id="edge3" class="edge"><title>ApplicationController&#45;&gt;OrdersController</title>
<path fill="none" stroke="black" d="M187.497,-354.172C164.251,-369.415 138.582,-386.246 116.129,-400.969"/>
<polyline fill="none" stroke="black" points="111.683,-403.885 115.864,-401.143 "/>
</g>
<!-- ProductsController -->
<g id="node6" class="node"><title>ProductsController</title>
<path fill="none" stroke="black" d="M375.252,-359.799C375.252,-359.799 473.797,-359.799 473.797,-359.799 479.797,-359.799 485.797,-365.799 485.797,-371.799 485.797,-371.799 485.797,-580.599 485.797,-580.599 485.797,-586.599 479.797,-592.599 473.797,-592.599 473.797,-592.599 375.252,-592.599 375.252,-592.599 369.252,-592.599 363.252,-586.599 363.252,-580.599 363.252,-580.599 363.252,-371.799 363.252,-371.799 363.252,-365.799 369.252,-359.799 375.252,-359.799"/>
<text text-anchor="middle" x="424.525" y="-574.599" font-family="Times,serif" font-size="14.00">ProductsController</text>
<polyline fill="none" stroke="black" points="363.252,-567.799 485.797,-567.799 "/>
<text text-anchor="start" x="371.252" y="-549.799" font-family="Times,serif" font-size="14.00">create</text>
<text text-anchor="start" x="371.252" y="-532.999" font-family="Times,serif" font-size="14.00">destroy</text>
<text text-anchor="start" x="371.252" y="-516.199" font-family="Times,serif" font-size="14.00">edit</text>
<text text-anchor="start" x="371.252" y="-499.399" font-family="Times,serif" font-size="14.00">index</text>
<text text-anchor="start" x="371.252" y="-482.599" font-family="Times,serif" font-size="14.00">new</text>
<text text-anchor="start" x="371.252" y="-465.799" font-family="Times,serif" font-size="14.00">show</text>
<text text-anchor="start" x="371.252" y="-448.999" font-family="Times,serif" font-size="14.00">update</text>
<polyline fill="none" stroke="black" points="363.252,-442.199 485.797,-442.199 "/>
<polyline fill="none" stroke="black" points="363.252,-418.199 485.797,-418.199 "/>
<text text-anchor="start" x="371.252" y="-400.199" font-family="Times,serif" font-size="14.00">_layout</text>
<text text-anchor="start" x="371.252" y="-383.399" font-family="Times,serif" font-size="14.00">product_params</text>
<text text-anchor="start" x="371.252" y="-366.599" font-family="Times,serif" font-size="14.00">set_product</text>
</g>
<!-- ApplicationController&#45;&gt;ProductsController -->
<g id="edge4" class="edge"><title>ApplicationController&#45;&gt;ProductsController</title>
<path fill="none" stroke="black" d="M306.225,-357.316C322.93,-374.103 341.892,-393.159 359.665,-411.02"/>
<polyline fill="none" stroke="black" points="363.203,-414.575 359.676,-411.031 "/>
</g>
<!-- StoreController -->
<g id="node7" class="node"><title>StoreController</title>
<path fill="none" stroke="black" d="M173.945,-507.619C173.945,-507.619 253.042,-507.619 253.042,-507.619 259.042,-507.619 265.042,-513.619 265.042,-519.619 265.042,-519.619 265.042,-594.019 265.042,-594.019 265.042,-600.019 259.042,-606.019 253.042,-606.019 253.042,-606.019 173.945,-606.019 173.945,-606.019 167.945,-606.019 161.945,-600.019 161.945,-594.019 161.945,-594.019 161.945,-519.619 161.945,-519.619 161.945,-513.619 167.945,-507.619 173.945,-507.619"/>
<text text-anchor="middle" x="213.493" y="-588.019" font-family="Times,serif" font-size="14.00">StoreController</text>
<polyline fill="none" stroke="black" points="161.945,-581.219 265.042,-581.219 "/>
<text text-anchor="start" x="169.945" y="-563.219" font-family="Times,serif" font-size="14.00">index</text>
<polyline fill="none" stroke="black" points="161.945,-556.419 265.042,-556.419 "/>
<polyline fill="none" stroke="black" points="161.945,-532.419 265.042,-532.419 "/>
<text text-anchor="start" x="169.945" y="-514.419" font-family="Times,serif" font-size="14.00">_layout</text>
</g>
<!-- ApplicationController&#45;&gt;StoreController -->
<g id="edge5" class="edge"><title>ApplicationController&#45;&gt;StoreController</title>
<path fill="none" stroke="black" d="M248.819,-357.104C241.428,-398.89 230.796,-458.999 223.129,-502.343"/>
<polyline fill="none" stroke="black" points="222.256,-507.278 223.127,-502.354 "/>
</g>
</g>
</svg>
