<?xml version="1.0" encoding="UTF-8" standalone="no"?>
<!DOCTYPE svg PUBLIC "-//W3C//DTD SVG 1.1//EN"
 "http://www.w3.org/Graphics/SVG/1.1/DTD/svg11.dtd">
<!-- Generated by graphviz version 2.34.0 (20140114.1509)
 -->
<!-- Title: controllers_diagram Pages: 1 -->
<svg width="515pt" height="294pt"
 viewBox="0.00 0.00 514.90 294.00" xmlns="http://www.w3.org/2000/svg" xmlns:xlink="http://www.w3.org/1999/xlink">
<g id="graph0" class="graph" transform="scale(1 1) rotate(0) translate(4 290)">
<title>controllers_diagram</title>
<polygon fill="white" stroke="white" points="-4,4 -4,-290 510.899,-290 510.899,4 -4,4"/>
<!-- _diagram_info -->
<g id="node1" class="node"><title>_diagram_info</title>
<text text-anchor="start" x="308" y="-269" font-family="Times,serif" font-size="13.00">Controllers diagram</text>
<text text-anchor="start" x="308" y="-253.4" font-family="Times,serif" font-size="13.00">Date: Jan 22 2014 &#45; 16:28</text>
<text text-anchor="start" x="308" y="-237.8" font-family="Times,serif" font-size="13.00">Migration version: 20140113174923</text>
<text text-anchor="start" x="308" y="-222.2" font-family="Times,serif" font-size="13.00">Generated by RailRoady 1.1.1</text>
<text text-anchor="start" x="308" y="-206.6" font-family="Times,serif" font-size="13.00">http://railroady.prestonlee.com</text>
</g>
<!-- ApplicationController -->
<g id="node2" class="node"><title>ApplicationController</title>
<ellipse fill="none" stroke="black" cx="201.139" cy="-75.516" rx="96.1448" ry="18"/>
<text text-anchor="middle" x="201.139" y="-69.916" font-family="Times,serif" font-size="14.00">ApplicationController</text>
</g>
<!-- CartsController -->
<g id="node3" class="node"><title>CartsController</title>
<ellipse fill="none" stroke="black" cx="299.473" cy="-22.0289" rx="71.2286" ry="18"/>
<text text-anchor="middle" x="299.473" y="-16.4289" font-family="Times,serif" font-size="14.00">CartsController</text>
</g>
<!-- ApplicationController&#45;&gt;CartsController -->
<g id="edge1" class="edge"><title>ApplicationController&#45;&gt;CartsController</title>
<path fill="none" stroke="black" d="M232.523,-58.4453C242.851,-52.8275 254.389,-46.5516 264.938,-40.8135"/>
<polyline fill="none" stroke="black" points="269.393,-38.3908 265,-40.7799 "/>
</g>
<!-- LineItemsController -->
<g id="node4" class="node"><title>LineItemsController</title>
<ellipse fill="none" stroke="black" cx="110.323" cy="-18" rx="89.7624" ry="18"/>
<text text-anchor="middle" x="110.323" y="-12.4" font-family="Times,serif" font-size="14.00">LineItemsController</text>
</g>
<!-- ApplicationController&#45;&gt;LineItemsController -->
<g id="edge2" class="edge"><title>ApplicationController&#45;&gt;LineItemsController</title>
<path fill="none" stroke="black" d="M173.398,-57.9468C163.448,-51.6452 152.157,-44.4944 141.905,-38.0018"/>
<polyline fill="none" stroke="black" points="137.583,-35.264 141.807,-37.9393 "/>
</g>
<!-- OrdersController -->
<g id="node5" class="node"><title>OrdersController</title>
<ellipse fill="none" stroke="black" cx="77.0083" cy="-122.331" rx="77.0167" ry="18"/>
<text text-anchor="middle" x="77.0083" y="-116.731" font-family="Times,serif" font-size="14.00">OrdersController</text>
</g>
<!-- ApplicationController&#45;&gt;OrdersController -->
<g id="edge3" class="edge"><title>ApplicationController&#45;&gt;OrdersController</title>
<path fill="none" stroke="black" d="M158.073,-91.7584C146.676,-96.0564 134.334,-100.711 122.799,-105.062"/>
<polyline fill="none" stroke="black" points="117.91,-106.905 122.588,-105.141 "/>
</g>
<!-- ProductsController -->
<g id="node6" class="node"><title>ProductsController</title>
<ellipse fill="none" stroke="black" cx="321.939" cy="-129.439" rx="84.5585" ry="18"/>
<text text-anchor="middle" x="321.939" y="-123.839" font-family="Times,serif" font-size="14.00">ProductsController</text>
</g>
<!-- ApplicationController&#45;&gt;ProductsController -->
<g id="edge4" class="edge"><title>ApplicationController&#45;&gt;ProductsController</title>
<path fill="none" stroke="black" d="M238.369,-92.1346C251.822,-98.1399 267.083,-104.952 280.848,-111.097"/>
<polyline fill="none" stroke="black" points="285.454,-113.153 280.888,-111.115 "/>
</g>
<!-- StoreController -->
<g id="node7" class="node"><title>StoreController</title>
<ellipse fill="none" stroke="black" cx="195.006" cy="-162.068" rx="71.2286" ry="18"/>
<text text-anchor="middle" x="195.006" y="-156.468" font-family="Times,serif" font-size="14.00">StoreController</text>
</g>
<!-- ApplicationController&#45;&gt;StoreController -->
<g id="edge5" class="edge"><title>ApplicationController&#45;&gt;StoreController</title>
<path fill="none" stroke="black" d="M199.838,-93.8714C198.905,-107.041 197.641,-124.882 196.64,-139.013"/>
<polyline fill="none" stroke="black" points="196.284,-144.036 196.637,-139.048 "/>
</g>
</g>
</svg>
