<?xml version="1.0" encoding="UTF-8" standalone="no"?>
<!DOCTYPE svg PUBLIC "-//W3C//DTD SVG 1.1//EN"
 "http://www.w3.org/Graphics/SVG/1.1/DTD/svg11.dtd">
<!-- Generated by graphviz version 2.34.0 (20140114.1509)
 -->
<!-- Title: models_diagram Pages: 1 -->
<svg width="486pt" height="238pt"
 viewBox="0.00 0.00 486.00 238.00" xmlns="http://www.w3.org/2000/svg" xmlns:xlink="http://www.w3.org/1999/xlink">
<g id="graph0" class="graph" transform="scale(1 1) rotate(0) translate(4 234)">
<title>models_diagram</title>
<polygon fill="white" stroke="white" points="-4,4 -4,-234 482,-234 482,4 -4,4"/>
<!-- _diagram_info -->
<g id="node1" class="node"><title>_diagram_info</title>
<text text-anchor="start" x="7.55029" y="-213" font-family="Times,serif" font-size="13.00">Models diagram</text>
<text text-anchor="start" x="7.55029" y="-197.4" font-family="Times,serif" font-size="13.00">Date: Jan 14 2014 &#45; 15:33</text>
<text text-anchor="start" x="7.55029" y="-181.8" font-family="Times,serif" font-size="13.00">Migration version: 20140113174923</text>
<text text-anchor="start" x="7.55029" y="-166.2" font-family="Times,serif" font-size="13.00">Generated by RailRoady 1.1.1</text>
<text text-anchor="start" x="7.55029" y="-150.6" font-family="Times,serif" font-size="13.00">http://railroady.prestonlee.com</text>
</g>
<!-- Cart -->
<g id="node2" class="node"><title>Cart</title>
<ellipse fill="none" stroke="black" cx="226" cy="-90" rx="27.493" ry="18"/>
<text text-anchor="middle" x="226" y="-84.4" font-family="Times,serif" font-size="14.00">Cart</text>
</g>
<!-- LineItem -->
<g id="node3" class="node"><title>LineItem</title>
<ellipse fill="none" stroke="black" cx="313" cy="-18" rx="46.1448" ry="18"/>
<text text-anchor="middle" x="313" y="-12.4" font-family="Times,serif" font-size="14.00">LineItem</text>
</g>
<!-- Cart&#45;&gt;LineItem -->
<g id="edge1" class="edge"><title>Cart&#45;&gt;LineItem</title>
<path fill="none" stroke="#92bd47" d="M249.296,-70.2564C260.619,-61.1455 274.291,-50.1452 286.061,-40.675"/>
<ellipse fill="none" stroke="#92bd47" cx="245.891" cy="-72.9958" rx="4.00002" ry="4.00002"/>
<polygon fill="#92bd47" stroke="#92bd47" points="286.062,-40.6739 296.675,-37.9111 289.958,-37.5395 293.854,-34.4051 293.854,-34.4051 293.854,-34.4051 289.958,-37.5395 291.033,-30.8991 286.062,-40.6739 286.062,-40.6739"/>
</g>
<!-- Order -->
<g id="node4" class="node"><title>Order</title>
<ellipse fill="none" stroke="black" cx="344" cy="-90" rx="33.3348" ry="18"/>
<text text-anchor="middle" x="344" y="-84.4" font-family="Times,serif" font-size="14.00">Order</text>
</g>
<!-- Order&#45;&gt;LineItem -->
<g id="edge4" class="edge"><title>Order&#45;&gt;LineItem</title>
<path fill="none" stroke="#dc0577" d="M333.399,-65.0625C330.552,-58.6325 327.458,-51.6473 324.561,-45.106"/>
<ellipse fill="none" stroke="#dc0577" cx="335.034" cy="-68.7536" rx="4.00002" ry="4.00002"/>
<polygon fill="#dc0577" stroke="#dc0577" points="324.558,-45.0997 324.624,-34.134 322.534,-40.528 320.509,-35.9562 320.509,-35.9562 320.509,-35.9562 322.534,-40.528 316.395,-37.7784 324.558,-45.0997 324.558,-45.0997"/>
</g>
<!-- Product -->
<g id="node5" class="node"><title>Product</title>
<ellipse fill="none" stroke="black" cx="437" cy="-90" rx="41.1166" ry="18"/>
<text text-anchor="middle" x="437" y="-84.4" font-family="Times,serif" font-size="14.00">Product</text>
</g>
<!-- Product&#45;&gt;LineItem -->
<g id="edge6" class="edge"><title>Product&#45;&gt;LineItem</title>
<path fill="none" stroke="#10f565" d="M405.715,-71.3392C387.91,-61.2877 365.582,-48.6833 347.299,-38.3625"/>
<ellipse fill="none" stroke="#10f565" cx="409.314" cy="-73.3707" rx="4.00002" ry="4.00002"/>
<polygon fill="#10f565" stroke="#10f565" points="347.129,-38.2663 340.633,-29.4316 342.775,-35.8083 338.421,-33.3503 338.421,-33.3503 338.421,-33.3503 342.775,-35.8083 336.208,-37.269 347.129,-38.2663 347.129,-38.2663"/>
</g>
<!-- ActiveRecord::Base -->
<g id="node6" class="node"><title>ActiveRecord::Base</title>
<ellipse fill="none" stroke="black" cx="313" cy="-187" rx="88.2033" ry="18"/>
<text text-anchor="middle" x="313" y="-181.4" font-family="Times,serif" font-size="14.00">ActiveRecord::Base</text>
</g>
<!-- ActiveRecord::Base&#45;&gt;Cart -->
<g id="edge2" class="edge"><title>ActiveRecord::Base&#45;&gt;Cart</title>
<path fill="none" stroke="black" d="M297.446,-169.016C282.179,-152.344 258.946,-126.976 243.151,-109.728"/>
<polyline fill="none" stroke="black" points="239.701,-105.961 243.078,-109.649 "/>
</g>
<!-- ActiveRecord::Base&#45;&gt;LineItem -->
<g id="edge3" class="edge"><title>ActiveRecord::Base&#45;&gt;LineItem</title>
<path fill="none" stroke="black" d="M308.911,-168.996C304.079,-146.711 297.153,-106.413 301,-72 302.15,-61.7158 304.517,-50.5146 306.848,-41.0701"/>
<polyline fill="none" stroke="black" points="308.131,-36.0209 306.899,-40.8669 "/>
</g>
<!-- ActiveRecord::Base&#45;&gt;Order -->
<g id="edge5" class="edge"><title>ActiveRecord::Base&#45;&gt;Order</title>
<path fill="none" stroke="black" d="M318.542,-169.016C323.656,-153.345 331.277,-129.99 336.848,-112.918"/>
<polyline fill="none" stroke="black" points="338.506,-107.837 336.955,-112.59 "/>
</g>
<!-- ActiveRecord::Base&#45;&gt;Product -->
<g id="edge7" class="edge"><title>ActiveRecord::Base&#45;&gt;Product</title>
<path fill="none" stroke="black" d="M334.599,-169.452C356.548,-152.637 390.46,-126.655 413.177,-109.251"/>
<polyline fill="none" stroke="black" points="417.283,-106.106 413.314,-109.146 "/>
</g>
</g>
</svg>
