<?xml version="1.0" encoding="UTF-8" standalone="no"?>
<!DOCTYPE svg PUBLIC "-//W3C//DTD SVG 1.1//EN"
 "http://www.w3.org/Graphics/SVG/1.1/DTD/svg11.dtd">
<!-- Generated by graphviz version 2.34.0 (20140114.1509)
 -->
<!-- Title: models_diagram Pages: 1 -->
<svg width="585pt" height="470pt"
 viewBox="0.00 0.00 585.00 470.00" xmlns="http://www.w3.org/2000/svg" xmlns:xlink="http://www.w3.org/1999/xlink">
<g id="graph0" class="graph" transform="scale(1 1) rotate(0) translate(4 466)">
<title>models_diagram</title>
<polygon fill="white" stroke="white" points="-4,4 -4,-466 581,-466 581,4 -4,4"/>
<!-- _diagram_info -->
<g id="node1" class="node"><title>_diagram_info</title>
<text text-anchor="start" x="7.55029" y="-445" font-family="Times,serif" font-size="13.00">Models diagram</text>
<text text-anchor="start" x="7.55029" y="-429.4" font-family="Times,serif" font-size="13.00">Date: Jan 14 2014 &#45; 15:33</text>
<text text-anchor="start" x="7.55029" y="-413.8" font-family="Times,serif" font-size="13.00">Migration version: 20140113174923</text>
<text text-anchor="start" x="7.55029" y="-398.2" font-family="Times,serif" font-size="13.00">Generated by RailRoady 1.1.1</text>
<text text-anchor="start" x="7.55029" y="-382.6" font-family="Times,serif" font-size="13.00">http://railroady.prestonlee.com</text>
</g>
<!-- Cart -->
<g id="node2" class="node"><title>Cart</title>
<path fill="none" stroke="black" d="M115.495,-222.4C115.495,-222.4 224.505,-222.4 224.505,-222.4 230.505,-222.4 236.505,-228.4 236.505,-234.4 236.505,-234.4 236.505,-293.6 236.505,-293.6 236.505,-299.6 230.505,-305.6 224.505,-305.6 224.505,-305.6 115.495,-305.6 115.495,-305.6 109.495,-305.6 103.495,-299.6 103.495,-293.6 103.495,-293.6 103.495,-234.4 103.495,-234.4 103.495,-228.4 109.495,-222.4 115.495,-222.4"/>
<text text-anchor="middle" x="170" y="-287.6" font-family="Times,serif" font-size="14.00">Cart</text>
<polyline fill="none" stroke="black" points="103.495,-280.8 236.505,-280.8 "/>
<text text-anchor="start" x="111.495" y="-262.8" font-family="Times,serif" font-size="14.00">id :integer</text>
<text text-anchor="start" x="111.495" y="-246" font-family="Times,serif" font-size="14.00">created_at :datetime</text>
<text text-anchor="start" x="111.495" y="-229.2" font-family="Times,serif" font-size="14.00">updated_at :datetime</text>
</g>
<!-- LineItem -->
<g id="node3" class="node"><title>LineItem</title>
<path fill="none" stroke="black" d="M257.495,-0.8C257.495,-0.8 366.505,-0.8 366.505,-0.8 372.505,-0.8 378.505,-6.8 378.505,-12.8 378.505,-12.8 378.505,-139.2 378.505,-139.2 378.505,-145.2 372.505,-151.2 366.505,-151.2 366.505,-151.2 257.495,-151.2 257.495,-151.2 251.495,-151.2 245.495,-145.2 245.495,-139.2 245.495,-139.2 245.495,-12.8 245.495,-12.8 245.495,-6.8 251.495,-0.8 257.495,-0.8"/>
<text text-anchor="middle" x="312" y="-133.2" font-family="Times,serif" font-size="14.00">LineItem</text>
<polyline fill="none" stroke="black" points="245.495,-126.4 378.505,-126.4 "/>
<text text-anchor="start" x="253.495" y="-108.4" font-family="Times,serif" font-size="14.00">id :integer</text>
<text text-anchor="start" x="253.495" y="-91.6" font-family="Times,serif" font-size="14.00">product_id :integer</text>
<text text-anchor="start" x="253.495" y="-74.8" font-family="Times,serif" font-size="14.00">cart_id :integer</text>
<text text-anchor="start" x="253.495" y="-58" font-family="Times,serif" font-size="14.00">created_at :datetime</text>
<text text-anchor="start" x="253.495" y="-41.2" font-family="Times,serif" font-size="14.00">updated_at :datetime</text>
<text text-anchor="start" x="253.495" y="-24.4" font-family="Times,serif" font-size="14.00">quantity :integer</text>
<text text-anchor="start" x="253.495" y="-7.6" font-family="Times,serif" font-size="14.00">order_id :integer</text>
</g>
<!-- Cart&#45;&gt;LineItem -->
<g id="edge1" class="edge"><title>Cart&#45;&gt;LineItem</title>
<path fill="none" stroke="#704541" d="M206.104,-215.709C219.137,-198.638 234.258,-178.832 248.922,-159.623"/>
<ellipse fill="none" stroke="#704541" cx="203.59" cy="-219.002" rx="4.00002" ry="4.00002"/>
<polygon fill="#704541" stroke="#704541" points="249.103,-159.386 258.748,-154.168 252.137,-155.412 255.172,-151.437 255.172,-151.437 255.172,-151.437 252.137,-155.412 251.595,-148.707 249.103,-159.386 249.103,-159.386"/>
</g>
<!-- Order -->
<g id="node4" class="node"><title>Order</title>
<path fill="none" stroke="black" d="M305.495,-188.8C305.495,-188.8 414.505,-188.8 414.505,-188.8 420.505,-188.8 426.505,-194.8 426.505,-200.8 426.505,-200.8 426.505,-327.2 426.505,-327.2 426.505,-333.2 420.505,-339.2 414.505,-339.2 414.505,-339.2 305.495,-339.2 305.495,-339.2 299.495,-339.2 293.495,-333.2 293.495,-327.2 293.495,-327.2 293.495,-200.8 293.495,-200.8 293.495,-194.8 299.495,-188.8 305.495,-188.8"/>
<text text-anchor="middle" x="360" y="-321.2" font-family="Times,serif" font-size="14.00">Order</text>
<polyline fill="none" stroke="black" points="293.495,-314.4 426.505,-314.4 "/>
<text text-anchor="start" x="301.495" y="-296.4" font-family="Times,serif" font-size="14.00">id :integer</text>
<text text-anchor="start" x="301.495" y="-279.6" font-family="Times,serif" font-size="14.00">name :string</text>
<text text-anchor="start" x="301.495" y="-262.8" font-family="Times,serif" font-size="14.00">address :text</text>
<text text-anchor="start" x="301.495" y="-246" font-family="Times,serif" font-size="14.00">email :string</text>
<text text-anchor="start" x="301.495" y="-229.2" font-family="Times,serif" font-size="14.00">pay_type :string</text>
<text text-anchor="start" x="301.495" y="-212.4" font-family="Times,serif" font-size="14.00">created_at :datetime</text>
<text text-anchor="start" x="301.495" y="-195.6" font-family="Times,serif" font-size="14.00">updated_at :datetime</text>
</g>
<!-- Order&#45;&gt;LineItem -->
<g id="edge4" class="edge"><title>Order&#45;&gt;LineItem</title>
<path fill="none" stroke="#cd54a2" d="M338.809,-180.886C337.153,-174.468 335.479,-167.98 333.819,-161.547"/>
<ellipse fill="none" stroke="#cd54a2" cx="339.823" cy="-184.813" rx="4.00001" ry="4.00001"/>
<polygon fill="#cd54a2" stroke="#cd54a2" points="333.725,-161.182 335.583,-150.375 332.475,-156.341 331.226,-151.5 331.226,-151.5 331.226,-151.5 332.475,-156.341 326.868,-152.624 333.725,-161.182 333.725,-161.182"/>
</g>
<!-- Product -->
<g id="node5" class="node"><title>Product</title>
<path fill="none" stroke="black" d="M456.495,-188.8C456.495,-188.8 565.505,-188.8 565.505,-188.8 571.505,-188.8 577.505,-194.8 577.505,-200.8 577.505,-200.8 577.505,-327.2 577.505,-327.2 577.505,-333.2 571.505,-339.2 565.505,-339.2 565.505,-339.2 456.495,-339.2 456.495,-339.2 450.495,-339.2 444.495,-333.2 444.495,-327.2 444.495,-327.2 444.495,-200.8 444.495,-200.8 444.495,-194.8 450.495,-188.8 456.495,-188.8"/>
<text text-anchor="middle" x="511" y="-321.2" font-family="Times,serif" font-size="14.00">Product</text>
<polyline fill="none" stroke="black" points="444.495,-314.4 577.505,-314.4 "/>
<text text-anchor="start" x="452.495" y="-296.4" font-family="Times,serif" font-size="14.00">id :integer</text>
<text text-anchor="start" x="452.495" y="-279.6" font-family="Times,serif" font-size="14.00">title :string</text>
<text text-anchor="start" x="452.495" y="-262.8" font-family="Times,serif" font-size="14.00">description :text</text>
<text text-anchor="start" x="452.495" y="-246" font-family="Times,serif" font-size="14.00">image_url :string</text>
<text text-anchor="start" x="452.495" y="-229.2" font-family="Times,serif" font-size="14.00">price :decimal</text>
<text text-anchor="start" x="452.495" y="-212.4" font-family="Times,serif" font-size="14.00">created_at :datetime</text>
<text text-anchor="start" x="452.495" y="-195.6" font-family="Times,serif" font-size="14.00">updated_at :datetime</text>
</g>
<!-- Product&#45;&gt;LineItem -->
<g id="edge6" class="edge"><title>Product&#45;&gt;LineItem</title>
<path fill="none" stroke="#f63dec" d="M438.51,-191.324C437.333,-190.206 436.163,-189.097 435,-188 419.45,-173.324 402.559,-157.812 386.418,-143.187"/>
<ellipse fill="none" stroke="#f63dec" cx="441.543" cy="-194.218" rx="4.00002" ry="4.00002"/>
<polygon fill="#f63dec" stroke="#f63dec" points="385.981,-142.792 381.581,-132.748 382.272,-139.439 378.563,-136.086 378.563,-136.086 378.563,-136.086 382.272,-139.439 375.546,-139.424 385.981,-142.792 385.981,-142.792"/>
</g>
<!-- ActiveRecord::Base -->
<g id="node6" class="node"><title>ActiveRecord::Base</title>
<ellipse fill="none" stroke="black" cx="313" cy="-419" rx="88.2033" ry="18"/>
<text text-anchor="middle" x="313" y="-413.4" font-family="Times,serif" font-size="14.00">ActiveRecord::Base</text>
</g>
<!-- ActiveRecord::Base&#45;&gt;Cart -->
<g id="edge2" class="edge"><title>ActiveRecord::Base&#45;&gt;Cart</title>
<path fill="none" stroke="black" d="M297.15,-401.042C276.676,-379.136 240.269,-340.183 211.644,-309.557"/>
<polyline fill="none" stroke="black" points="208.194,-305.865 211.608,-309.517 "/>
</g>
<!-- ActiveRecord::Base&#45;&gt;LineItem -->
<g id="edge3" class="edge"><title>ActiveRecord::Base&#45;&gt;LineItem</title>
<path fill="none" stroke="black" d="M304.595,-400.846C297.508,-385.367 287.913,-361.755 284,-340 272.04,-273.512 275.675,-255.041 284,-188 285.273,-177.746 287.184,-167.078 289.422,-156.588"/>
<polyline fill="none" stroke="black" points="290.545,-151.455 289.476,-156.34 "/>
</g>
<!-- ActiveRecord::Base&#45;&gt;Order -->
<g id="edge5" class="edge"><title>ActiveRecord::Base&#45;&gt;Order</title>
<path fill="none" stroke="black" d="M318.3,-400.746C322.63,-386.651 329.084,-365.642 335.628,-344.338"/>
<polyline fill="none" stroke="black" points="337.114,-339.502 335.645,-344.282 "/>
</g>
<!-- ActiveRecord::Base&#45;&gt;Product -->
<g id="edge7" class="edge"><title>ActiveRecord::Base&#45;&gt;Product</title>
<path fill="none" stroke="black" d="M341.759,-401.936C367.236,-387.174 404.943,-364 435,-340 436.711,-338.634 438.426,-337.234 440.141,-335.806"/>
<polyline fill="none" stroke="black" points="444.141,-332.428 440.321,-335.655 "/>
</g>
</g>
</svg>
